<?xml version="1.0" encoding="UTF-8" standalone="no"?>
<!-- Created with Inkscape (http://www.inkscape.org/) -->

<svg
   version="1.1"
   id="svg2"
   width="667.76001"
   height="667.66669"
   viewBox="0 0 667.76001 667.66669"
   sodipodi:docname="raggiera_polimi.eps"
   xmlns:inkscape="http://www.inkscape.org/namespaces/inkscape"
   xmlns:sodipodi="http://sodipodi.sourceforge.net/DTD/sodipodi-0.dtd"
   xmlns="http://www.w3.org/2000/svg"
   xmlns:svg="http://www.w3.org/2000/svg">
  <defs
     id="defs6" />
  <sodipodi:namedview
     id="namedview4"
     pagecolor="#ffffff"
     bordercolor="#000000"
     borderopacity="0.25"
     inkscape:showpageshadow="2"
     inkscape:pageopacity="0.0"
     inkscape:pagecheckerboard="0"
     inkscape:deskcolor="#d1d1d1" />
  <g
     id="g8"
     inkscape:groupmode="layer"
     inkscape:label="ink_ext_XXXXXX"
     transform="matrix(1.3333333,0,0,-1.3333333,0,667.66667)">
    <g
       id="g10"
       transform="scale(0.1)">
      <path
         d="m 5007.05,2424.53 -221.63,7.62 m 222.68,109.48 -221.73,-3.47 m 217.39,120.46 -221.29,-14.51 m 211.63,129.82 -220.62,-22.76 m 205.35,138.83 -219.17,-33.68 m 198.53,148.89 -217.25,-44.48 m 191.21,158.52 -214.8,-55.02 m 183.46,167.73 -211.87,-65.46 m 175.68,175.23 -209.33,-73.14 m 167.59,182.38 -205.54,-83.17 m 158.75,190.28 -201.34,-92.96 m 149.58,197.74 -196.63,-102.46 m 140.06,204.68 -191.55,-111.72 m 130.33,211.18 -186.09,-120.66 m 120.26,217.17 -180.15,-129.33 m 109.95,222.67 -173.85,-137.7 m 99.42,227.68 -167.2,-145.71 m 88.64,232.15 -160.1,-153.45 m 77.62,236.13 -152.69,-160.8 m 66.47,239.62 -144.91,-167.87 m 56.16,241.73 -138.87,-172.86 m 45.72,243.35 -130.53,-179.27 m 34.12,245.38 -121.8,-185.31 m 22.47,246.82 -112.82,-190.9 m 10.65,247.72 -103.49,-196.12 m -1.23,248.1 -93.88,-200.92 m -13.22,247.95 -83.95,-205.24 m -25.24,247.2 -73.86,-209.12 m -37.22,245.91 -63.44,-212.49 m -47.99,243.61 -55.49,-214.69 m -58.55,240.92 -44.81,-217.18 m -70.4,238.08 -33.95,-219.13 m -80.74,234.54 -25.72,-220.28 m -90.92,230.42 -14.65,-221.26 m -102.42,226.07 -3.49,-221.71 m -112.3,221.2 4.98,-221.71 m -121.97,215.7 16.16,-221.16 m -132.73,209.73 27.25,-220.06 m -143.13,203.22 38.2,-218.46 m -151.81,196.41 46.39,-216.85 m -160.13,189.19 57.07,-214.27 m -169.35,181.34 67.55,-211.24 m -178.15,173.04 77.83,-207.65 m -186.47,164.34 87.86,-203.57 m -193.11,155.81 95.18,-200.25 m -199.29,147.03 104.77,-195.46 m -206.25,137.46 114.05,-190.19 m -212.72,127.53 123.03,-184.48 m -218.68,117.32 131.75,-178.41 m -224.115,106.87 140.045,-171.91 m -229.026,96.19 148.09,-165.06 m -233.5,85.29 155.832,-157.81 m -236.519,75.14 161.379,-152.1 m -239.032,64.72 168.438,-144.17 m -241.945,53.33 175.179,-135.97 m -244.398,41.78 181.496,-127.38 m -246.27,30.06 187.461,-118.47 M 325.824,3740 518.813,3630.78 m -248.411,6.22 198.102,-99.69 m -248.09,-4.62 201.609,-92.29 m -247.125,-15.49 205.907,-82.29 m -246.348,-27.57 209.719,-71.94 M 99.1953,3203.39 312.285,3142 M 69.2344,3090.15 285.105,3039.54 M 44.8789,2977.01 262.504,2934.57 M 25.5938,2861.45 245.117,2830.05 M 11.6563,2745.1 232.477,2724.82 M 3.20703,2629.64 224.621,2617.77 M 0.015625,2512.5 221.742,2511.85 M 2.20703,2395.36 223.695,2405.93 M 9.75391,2279.84 230.707,2298.78 M 22.875,2163.45 242.57,2193.46 M 41.3867,2047.82 259.305,2088.8 M 64.9844,1934.54 281.227,1983.62 M 94.2773,1821.21 307.824,1880.93 m -179.043,-171.54 210.371,70.17 m -170.597,-180.19 206.668,80.41 m -161.84,-188.43 202.512,90.34 m -152.649,-196.12 197.902,100.07 m -143.175,-203.36 192.832,109.45 m -134.047,-208.96 188.769,116.37 m -124.73,-214.11 182.976,125.26 M 509.316,990.359 686.094,1124.24 M 582.121,898.949 752.332,1041.08 M 659.105,811.059 822.344,961.191 M 740.07,726.789 895.977,884.539 M 824.879,646.41 973.066,811.398 M 913.324,570.039 1053.4,741.898 m -49.24,-243.277 133.83,176.758 m -38.66,-244.66 125.19,183.09 m -26.95,-246.45 116.18,188.86 m -15.04,-247.61 106.87,194.301 M 1402.5,254.629 1499.74,454 m 9,-248.359 87.31,203.859 m 19.89,-247.371 79.68,206.98 m 30.74,-245.82 69.32,210.621 m 42.83,-244.3084 58.71,213.8784 m 54.92,-242.2183 47.89,216.4763 m 65.57,-239.2692 39.73,218.1602 m 76.1,-235.8282 28.64,219.9182 M 2297.96,8.48828 2315.43,229.59 M 2413.52,1.66016 2422.57,223.18 M 2530.71,0.0507813 2528.51,221.832 M 2647.77,3.89063 2634.42,225.27 M 2763.16,13.082 2741.47,233.75 M 2879.35,27.8203 2846.61,247.129 M 2994.7,47.9297 2951.04,265.352 m 157.9,-191.9028 -54.4,214.9998 m 165.97,-184.469 -62.33,212.829 m 173.63,-176.707 -72.69,209.457 m 182.16,-168.188 -82.9,205.711 m 190.27,-159.391 -92.81,201.438 M 3653.7,279.07 3551.29,475.75 M 3756.24,335.16 3644.48,526.719 M 3856.03,396.02 3735.2,581.961 m 216.58,-121.25 -127.44,181.48 m 221.12,-111.679 -135.9,175.207 m 226.27,-101.137 -144.12,168.539 m 230.98,-90.383 -152.02,161.461 m 235.14,-79.32 -159.52,154.039 m 238.74,-68.117 -166.69,146.238 m 241.89,-56.738 -173.56,138.039 m 244.47,-45.16 -179.94,129.57 m 245.77,-34.54 -184.54,122.95 m 246.53,-23.84 -190.25,113.89 m 247.54,-11.92 -195.56,104.46 m 248.05,0.09 -200.44,94.79 m 248.01,12.13 -204.91,84.8 m 247.37,24.28 -208.82,74.54 m 245.71,35.12 -211.49,66.73 m 243.57,45.92 -214.57,56.05 m 241.33,57.98 -217.1,45.17 m 238.5,70.02 -219.07,34.18 m 234.89,80.49 -220.2,25.85 m 230.89,90.85 -221.25,14.66"
         style="fill:none;stroke:#b2c0cb;stroke-width:10;stroke-linecap:butt;stroke-linejoin:miter;stroke-miterlimit:10;stroke-dasharray:none;stroke-opacity:1"
         id="path12" />
      <path
         d="m 4596.52,1666.32 -185.09,74.67 m 222.02,24.04 -188.58,65.32 m 220.92,34.96 -191.61,55.84 m 218.93,44.65 -193.57,48.66 m 216.39,54.2 -195.72,38.98 m 213.72,64.82 -197.42,29.25 m 210.52,75.21 -198.61,19.58 m 206.79,85.38 -199.33,9.86 m 202.52,94.12 -199.56,2.58 m 197.88,102.66 -199.44,-7.07 m 192.83,112.06 -198.88,-16.65 m 187.37,121.19 -197.83,-26.12 m 181.45,129.99 -196.4,-35.53 m 175.23,138.49 -194.51,-44.78 m 168.55,146.65 -192.16,-53.92 m 161.53,154.48 -189.42,-62.94 m 154.16,161.95 -186.25,-71.76 m 146.42,169.04 -182.63,-80.49 m 138.33,175.81 -178.64,-89 m 129.98,182.19 -174.22,-97.36 m 121.91,187.15 -170.67,-103.44 m 113.58,191.74 -165.57,-111.44 m 104.39,197.02 -160.04,-119.24 m 94.97,201.84 -154.17,-126.74 m 85.24,206.24 -147.88,-134.01 m 75.33,210.19 -141.25,-141.02 m 65.15,213.78 -134.19,-147.74 m 54.76,216.82 -126.84,-154.12 m 44.21,219.44 -119.05,-160.18 m 34.4,220.8 -113.01,-164.49 m 24.64,221.77 -104.75,-169.88 m 13.75,223.02 -96.17,-174.88 m 3.91,223.22 -89.55,-178.38 m -5.97,222.86 -80.51,-182.62 m -17.02,222.72 -71.19,-186.43 m -26.88,221.64 -64.04,-189.04 m -36.76,219.96 -54.4,-192 m -47.71,218.23 -44.69,-194.5 m -58.49,215.92 -34.93,-196.51 m -67.93,212.83 -27.53,-197.68 m -77.18,209.3 -17.69,-198.78 m -87.41,205.49 -7.9,-199.44 m -97.39,201.19 1.91,-199.58 m -107.12,196.37 11.63,-199.19 m -115.35,191.22 18.86,-198.67 m -123.28,185.71 28.44,-197.57 m -132.12,179.75 37.9,-195.95 m -140.64,173.32 47.27,-193.89 m -148.83,166.54 56.5,-191.45 m -156.64,159.38 65.53,-188.5 m -164.09,151.85 74.44,-185.17 m -171.22,144 83.21,-181.43 m -176.9,136.35 89.66,-178.32 m -182.23,128.32 98.08,-173.78 m -188.21,119.59 106.3,-168.93 m -193.83,110.57 114.28,-163.6 m -199.02,101.23 122.07,-157.89 m -203.83,91.59 129.61,-151.78 m -208.179,81.72 136.849,-145.28 m -211.228,72.46 142.098,-140.11 m -213.777,62.97 148.808,-132.98 m -216.816,52.51 155.218,-125.4 m -219.414,41.82 161.313,-117.51 M 625.414,3749.2 792.402,3639.95 M 569.98,3661 l 171,-102.87 m -222.878,11.08 175.988,-94.13 m -223.586,0.03 180.508,-85.14 m -223.199,-9.91 183.609,-78.21 m -222.359,-19.88 187.32,-68.8 m -221.531,-30.94 190.582,-59.24 m -219.75,-40.78 192.687,-52 m -217.422,-50.47 195.039,-42.26 m -214.976,-61.24 196.914,-32.42 m -211.824,-70.64 197.988,-25.05 m -208.102,-79.82 198.981,-15.23 m -204.207,-89.95 199.511,-5.41 m -199.75,-99.89 199.54,4.39 m -194.883,-109.55 199.082,14.08 m -189.457,-118.87 198.16,23.71 m -183.684,-127.92 196.774,33.21 m -177.692,-135.46 195.469,40.31 m -171.391,-142.69 193.309,49.62 m -164.512,-150.78 190.723,58.82 m -157.27,-158.53 187.692,67.81 m -149.649,-165.84 184.258,76.7 m -141.719,-172.9 180.399,85.41 m -133.434,-179.48 176.125,93.92 M 563.539,1358.06 734.91,1460.29 m -116.527,-190.6 167.597,108.3 m -108.015,-195.03 162.226,116.32 m -98.648,-200.15 156.398,123.98 m -88.949,-204.79 150.192,131.44 m -79.024,-209.03 143.6,138.68 m -68.83,-212.808 136.59,145.508 m -59.33,-215.309 131.1,150.508 m -49.68,-217.348 123.47,156.777 m -38.98,-219.797 115.48,162.821 m -28.1,-221.774 107.14,168.34 m -18.2,-222.539 100.74,172.289 m -8.22,-222.879 91.92,177.18 m 2.84,-223.457 82.83,181.609 m 12.79,-222.961 75.85,184.571 m 22.76,-221.993 66.42,188.231 m 33.76,-221.02 56.86,191.332 m 43.56,-219.082 49.58,193.289 m 53.23,-216.597 39.81,195.558 m 63.93,-214.058 30,197.32 m 74.47,-210.891 20.17,198.571 m 83.59,-207.102 12.79,199.18 m 92.46,-202.899 2.99,199.54 m 102.29,-198.321 -6.79,199.492 m 111.84,-193.371 -16.47,198.91 m 121.13,-187.789 -26.07,197.84 m 130.07,-181.972 -35.56,196.41 m 138.69,-175.66 -44.96,194.453 M 3099.57,330.301 3047.65,523 m 152.62,-162.512 -61,190.012 m 160.25,-155.18 -70.01,186.899 m 167.51,-147.528 -78.87,183.34 M 3492.6,478.57 3405.11,657.941 m 180.94,-131.101 -95.96,175 m 187.1,-122.449 -104.29,170.16 m 192.86,-113.43 -112.31,164.957 M 3850.67,696.219 3732.46,857 m 201.14,-96.039 -125.84,154.867 m 205.69,-86.277 -133.24,148.551 m 209.82,-76.27 -140.34,141.858 m 213.48,-66.081 -147.19,134.791 m 216.67,-55.61 -153.66,127.32 m 218.61,-45.93 -158.31,121.53 m 220.12,-36.14 -164.22,113.45 m 221.94,-25.25 -169.69,105.04 m 223.26,-14.21 -174.75,96.35 m 223.43,-4.24 -178.28,89.64 m 223.24,5.77 -182.61,80.5"
         style="fill:none;stroke:#b2c0cb;stroke-width:10;stroke-linecap:butt;stroke-linejoin:miter;stroke-miterlimit:10;stroke-dasharray:none;stroke-opacity:1"
         id="path14" />
      <path
         d="m 4531.5,2439.59 -179.52,6.17 m 180.37,88.68 -179.6,-2.81 m 176.07,97.57 -179.24,-11.75 M 4521,2722.6 4342.31,2704.17 m 166.33,112.45 -177.53,-27.28 m 160.8,120.6 -175.96,-36.03 m 154.87,128.41 -173.98,-44.57 m 148.6,135.86 -171.62,-53.02 m 142.31,141.93 -169.56,-59.24 m 135.76,147.73 -166.52,-67.37 m 128.6,154.13 -163.08,-75.3 m 121.16,160.17 -159.27,-83 m 113.44,165.8 -155.15,-90.5 m 105.56,171.06 -150.71,-97.74 m 97.39,175.91 -145.91,-104.75 m 89.06,180.36 -140.82,-111.54 m 80.52,184.42 -135.42,-118.02 m 71.79,188.03 -129.68,-124.29 m 62.88,191.27 -123.69,-130.25 m 53.84,194.09 -117.37,-135.97 m 45.5,195.8 -112.49,-140.02 m 37.02,197.12 -105.71,-145.21 m 27.62,198.76 -98.64,-150.11 m 18.18,199.93 -91.37,-154.64 m 8.62,200.66 -83.82,-158.86 m -1,200.97 -76.04,-162.75 m -10.71,200.84 -68.01,-166.24 m -20.43,200.22 -59.83,-169.38 m -30.15,199.19 -51.39,-172.12 m -38.86,197.33 -44.96,-173.9 m -47.43,195.14 -36.29,-175.91 m -57.03,192.84 -27.5,-177.49 m -65.4,189.97 -20.83,-178.42 m -73.64,186.64 -11.88,-179.23 m -82.94,183.12 -2.83,-179.58 m -90.96,179.17 4.02,-179.59 m -98.78,174.72 13.09,-179.14 m -107.52,169.88 22.07,-178.25 m -115.94,164.61 30.96,-176.95 m -122.97,159.09 37.57,-175.65 m -129.7,153.24 46.21,-173.56 m -137.16,146.89 54.71,-171.11 m -144.3,140.17 63.05,-168.2 m -151.04,133.12 71.15,-164.89 m -156.42,126.2 77.09,-162.2 m -161.41,119.1 84.87,-158.33 m -167.06,111.35 92.36,-154.06 m -172.3,103.3 99.67,-149.43 m -177.14,95.03 106.72,-144.51 m -181.54,86.57 113.45,-139.25 m -185.53,77.91 119.97,-133.69 m -189.15,69.08 126.24,-127.83 m -191.59,60.87 130.72,-123.22 m -193.612,52.44 136.442,-116.78 m -195.981,43.2 141.891,-110.14 m -197.962,33.84 147.004,-103.18 m -199.476,24.35 151.844,-95.96 m -200.575,14.72 156.328,-88.47 m -201.214,5.04 160.461,-80.75 m -200.954,-3.74 163.309,-74.75 m -200.18,-12.55 166.782,-66.66 m -199.539,-22.33 169.867,-58.27 m -198.418,-32.18 172.59,-49.72 m -196.864,-42 174.856,-40.99 m -194.59,-50.65 176.289,-34.38 m -191.91,-59.23 177.808,-25.43 m -189.097,-68.81 178.867,-16.43 m -185.707,-77.09 179.351,-9.62 m -181.933,-85.26 179.59,-0.53 m -177.821,-94.36 179.411,8.56 m -173.301,-102.13 178.98,15.34 m -168.351,-109.61 177.961,24.31 m -162.961,-117.97 176.511,33.19 m -157.398,-124.95 175.16,39.75 m -151.43,-131.55 172.969,48.37 m -145.019,-138.94 170.398,56.84 m -138.187,-145.96 167.406,65.13 m -131.086,-152.62 164.027,73.17 m -123.636,-158.85 160.285,81.05 m -115.969,-164.72 156.187,88.65 m -108.566,-169.26 152.898,94.27 m -101.031,-173.44 148.215,101.47 m -92.715,-178.15 143.196,108.44 M 947.309,1203.87 1085.17,1319 m -75.51,-186.32 132.22,121.59 m -66.64,-189.85 126.28,127.77 m -57.6,-192.87 120.05,133.64 m -48.39,-195.499 113.46,139.199 m -39.89,-197.058 108.41,143.178 m -31.33,-198.178 101.41,148.289 m -21.83,-199.61 94.12,152.981 m -12.2,-200.571 86.57,157.391 m -2.49,-201.113 78.76,161.492 m 7.3,-201.172 70.72,165.121 m 16.1,-200.371 64.55,167.652 m 24.89,-199.109 56.16,170.609 m 34.68,-197.902 47.56,173.25 m 44.49,-196.199 38.78,175.351 m 53.12,-193.812 32.18,176.711 m 61.65,-191.02 23.2,178.129 m 71.19,-188.097 14.15,179.089 m 79.45,-184.64 7.33,179.449 m 87.58,-180.738 -1.77,179.629 m 96.58,-176.52 -10.81,179.32 m 104.29,-171.871 -17.57,178.739 m 111.7,-166.809 -26.53,177.648 m 119.96,-161.359 -35.38,176.109 m 127.9,-155.429 -44.06,174.152 m 134.44,-149.43 -50.49,172.399 m 140.64,-143.141 -58.88,169.672 m 147.56,-136.242 -67.15,166.621 m 154.1,-129.102 -75.17,163.153 m 160.27,-121.531 -82.95,159.3 m 166,-113.871 -90.52,155.172 M 3599.15,796.5 3501.29,947.109 m 175.43,-98.211 -103.22,146.993 m 179.11,-90.461 -110.09,141.92 m 183.28,-81.92 -116.72,136.52 m 187.08,-73.22 -123.15,130.79 m 190.48,-64.25 -129.22,124.78 m 193.4,-55.18 -135.03,118.45 m 195.93,-45.96 -140.59,111.81 m 198.03,-36.57 -145.75,104.95 m 199.06,-27.98 -149.47,99.58 m 199.69,-19.3 -154.12,92.25 m 200.53,-9.65 -158.42,84.61 m 200.94,0.07 -162.36,76.78 m 200.89,9.82 -165.97,68.7 m 200.36,19.66 -169.15,60.38 m 199.02,28.44 -171.3,54.06 m 197.29,37.19 -173.8,45.4 m 195.47,46.96 -175.85,36.6 m 193.19,56.71 -177.45,27.69 m 190.27,65.19 -178.37,20.94 m 187.03,73.59 -179.22,11.87"
         style="fill:none;stroke:#b2c0cb;stroke-width:10;stroke-linecap:butt;stroke-linejoin:miter;stroke-miterlimit:10;stroke-dasharray:none;stroke-opacity:1"
         id="path16" />
      <path
         d="m 4309.32,2231.97 -159.78,24.5 m 170.57,60.17 -160.81,16.49 m 167.69,68.58 -161.44,8.46 m 164.32,75.85 -161.65,2.42 m 160.55,82.91 -161.55,-5.59 m 156.49,90.77 -161.1,-13.59 m 152.01,98.38 -160.22,-21.42 m 147.19,105.7 -158.99,-29.24 m 142.2,111.81 -157.82,-35.02 m 136.96,117.68 -155.93,-42.59 m 131.23,124.15 -153.72,-50.06 m 125.23,130.34 -151.13,-57.32 m 118.93,136.17 -148.24,-64.47 m 112.44,141.72 -145.04,-71.41 m 105.66,146.93 -141.5,-78.2 m 98.68,151.78 -137.66,-84.79 m 91.48,156.31 -133.52,-91.15 m 84.06,160.46 -129.06,-97.38 m 76.43,164.3 -124.32,-103.33 m 68.67,167.77 -119.3,-109.1 m 61.38,170.19 -115.36,-113.25 m 53.94,172.26 -109.83,-118.59 m 45.71,174.71 -104.04,-123.72 m 37.4,176.77 -98.03,-128.55 m 28.93,178.42 -91.72,-133.11 m 20.37,179.72 -85.18,-137.42 m 11.68,180.64 -78.37,-141.37 m 2.91,181.11 -71.38,-145.06 m -5.89,181.22 -64.13,-148.41 m -13.86,180.49 -58.57,-150.69 m -21.75,179.44 -51.04,-153.39 m -30.56,178.4 -43.37,-155.74 m -38.35,176.71 -37.49,-157.26 m -46.08,174.61 -29.57,-158.93 m -54.77,172.43 -21.52,-160.2 m -62.34,169.75 -15.4,-160.93 m -69.82,166.61 -7.24,-161.5 m -78.13,163.22 0.87,-161.65 m -86.2,159.38 8.94,-161.43 m -93.07,155.2 15,-160.97 m -99.72,150.7 22.96,-160.02 m -107.06,145.79 30.79,-158.72 m -114.14,140.54 38.56,-156.99 m -120.91,134.94 46.15,-154.9 m -126.45,129.36 51.75,-153.13 m -131.67,123.52 59.1,-150.49 m -137.54,117.19 66.27,-147.46 m -143.07,110.54 73.27,-144.09 m -148.26,103.69 80.08,-140.46 m -153.09,96.57 86.67,-136.46 m -157.57,89.26 93.07,-132.18 m -161.74,81.76 99.29,-127.6 m -164.78,74.66 103.79,-123.95 m -167.49,67.36 109.58,-118.82 m -170.58,59.34 115.16,-113.44 m -173.35,51.18 120.48,-107.77 m -175.71,42.87 125.56,-101.83 m -177.71,34.37 130.36,-95.61 m -179.302,25.79 134.872,-89.14 m -179.997,17.91 138.047,-84.09 m -180.242,9.96 142.022,-77.22 m -180.702,1.15 145.652,-70.04 m -180.749,-7.77 149,-62.69 M 791.66,3136.93 943.602,3081.8 m -179.274,-24.69 153.922,-49.37 m -177.777,-32.64 156.23,-41.54 m -176.293,-41.5 158.117,-33.59 m -174.129,-49.27 159.274,-27.57 m -171.621,-56.96 160.457,-19.47 m -168.906,-65.52 161.25,-11.33 m -165.692,-72.94 161.59,-5.23 m -162.059,-80.16 161.622,2.9 m -158.129,-88.19 161.265,10.99 m -153.89,-95.03 160.754,17.01 M 701.059,2216.15 860.77,2241.07 M 716.461,2132.24 874.77,2165 m -138.95,-115.83 156.508,40.51 m -133.305,-122.55 154.352,48.05 m -127.316,-128.9 151.839,55.5 m -121.078,-134.96 148.981,62.72 m -114.953,-139.79 146.632,68.07 m -108.636,-144.32 143.196,75 m -101.708,-149.41 139.448,81.77 m -94.569,-154.19 135.399,88.31 m -87.2,-158.54 131.03,94.7 m -79.64,-162.64 126.38,100.83 m -71.87,-166.27 121.41,106.73 m -63.93,-169.61 116.14,112.41 m -56.49,-171.89 112.03,116.49 m -48.96,-173.81 106.32,121.82 m -40.62,-176.1 100.29,126.76 m -32.11,-177.97 94.01,131.52 m -23.49,-179.48 87.47,135.99 m -14.76,-180.549 80.68,140.079 m -6.81,-180.778 75.43,142.998 m 1.18,-180.588 68.24,146.559 m 10.07,-180.551 60.82,149.808 m 19.02,-180.058 53.22,152.609 m 26.96,-178.82 47.45,154.531 m 34.9,-177.262 39.57,156.762 m 43.73,-175.66 31.59,158.578 m 51.48,-173.43 25.54,159.602 m 59.15,-170.789 17.43,160.738 m 67.65,-168 9.3,161.41 m 75.02,-164.64 3.21,161.609 m 82.18,-160.906 -4.92,161.59 m 90.15,-156.91 -12.99,161.136 m 97.87,-152.449 -20.96,160.32 m 104.35,-147.781 -26.89,159.434 m 110.57,-142.821 -34.69,157.879 m 117.47,-137.379 -42.38,156.039 m 124.07,-131.691 -49.91,153.77 m 130.36,-125.59 -57.28,151.152 m 136.33,-119.32 -64.5,148.258 m 141.95,-112.758 -71.54,144.969 m 146.41,-106.329 -76.71,142.289 m 150.5,-99.789 -83.37,138.479 m 155.15,-92.6 -89.89,134.36 m 159.46,-85.21 -96.22,129.91 m 163.44,-77.58 -102.29,125.19 m 167,-69.78 -108.15,120.16 m 170.25,-61.81 -113.81,114.81 m 173.11,-53.64 -119.17,109.22 m 174.96,-46.06 -123.06,104.82 m 176.43,-38.39 -127.97,98.75 m 178.2,-29.84 -132.64,92.39 m 179.59,-21.2 -136.99,85.81 m 180.59,-12.48 -141.07,78.96 m 181.15,-3.63 -144.79,71.85 m 180.89,4.38 -147.38,66.43 m 180.26,12.38 -150.54,58.96 m 179.68,21.3 -153.3,51.3 m 178.67,30.24 -155.67,43.53 m 176.96,38.14 -157.22,37.59 m 174.94,45.98 -158.92,29.57"
         style="fill:none;stroke:#b2c0cb;stroke-width:10;stroke-linecap:butt;stroke-linejoin:miter;stroke-miterlimit:10;stroke-dasharray:none;stroke-opacity:1"
         id="path18" />
      <path
         d="m 4146.29,2451.79 -145.41,5 m 146.11,71.83 -145.49,-2.27 m 142.63,79.03 -145.19,-9.52 m 138.86,85.17 -144.76,-14.93 m 134.73,91.08 -143.79,-22.1 m 130.25,97.69 -142.54,-29.18 m 125.45,104.01 -140.93,-36.1 m 120.39,110.04 -139.03,-42.94 m 115.28,114.97 -137.36,-47.99 m 109.97,119.66 -134.87,-54.57 m 104.16,124.84 -132.09,-60.99 m 98.14,129.74 -129.02,-67.23 m 91.91,134.3 -125.69,-73.31 m 85.51,138.56 -122.09,-79.17 m 78.91,142.49 -118.21,-84.85 m 72.15,146.09 -114.07,-90.35 m 65.22,149.39 -109.68,-95.6 m 58.15,152.31 -105.05,-100.68 m 50.93,154.93 -100.18,-105.5 m 43.62,157.21 -95.08,-110.14 m 36.85,158.6 -91.12,-113.42 m 29.99,159.67 -85.62,-117.62 m 22.38,161 -79.9,-121.59 m 14.72,161.94 -74.02,-125.26 m 6.98,162.54 -67.89,-128.67 m -0.8,162.76 -61.6,-131.81 m -8.67,162.68 -55.09,-134.65 m -16.54,162.18 -48.47,-137.21 m -24.42,161.35 -41.62,-139.42 m -31.49,159.84 -36.41,-140.86 m -38.41,158.06 -29.4,-142.49 m -46.19,156.21 -22.27,-143.77 m -52.97,153.87 -16.88,-144.51 m -59.66,151.17 -9.62,-145.17 m -67.18,148.33 -2.3,-145.47 m -73.68,145.13 3.27,-145.46 m -80.03,141.52 10.61,-145.1 m -87.09,137.6 17.88,-144.38 m -93.91,133.33 25.07,-143.33 m -99.6,128.87 30.43,-142.28 m -105.06,124.12 37.44,-140.58 m -111.11,118.98 44.32,-138.61 m -116.89,113.55 51.07,-136.24 m -122.34,107.82 57.64,-133.56 m -126.69,102.23 62.44,-131.39 m -130.75,96.47 68.74,-128.24 m -135.32,90.18 74.82,-124.78 m -139.56,83.67 80.72,-121.03 m -143.47,76.97 86.43,-117.05 m -147.04,70.11 91.89,-112.79 m -150.27,63.11 97.16,-108.29 m -153.2,55.96 102.24,-103.54 m -155.18,49.3 105.89,-99.8 m -156.83,42.47 110.51,-94.59 m -158.74,34.99 114.93,-89.22 m -160.35,27.42 119.08,-83.58 m -161.58,19.72 123,-77.72 m -162.47,11.92 126.63,-71.66 m -162.99,4.08 129.98,-65.41 m -162.76,-3.03 132.26,-60.56 m -162.14,-10.15 135.09,-54 m -161.617,-18.08 137.587,-47.2 m -160.716,-26.06 139.796,-40.28 m -159.46,-34.02 141.63,-33.2 m -157.615,-41.03 142.785,-27.84 m -155.437,-47.98 144.027,-20.6 m -153.167,-55.73 144.877,-13.31 m -150.428,-62.45 145.278,-7.79 m -147.368,-69.06 145.468,-0.43 m -144.031,-76.43 145.321,6.93 m -140.367,-82.72 144.967,12.42 m -136.358,-88.78 144.138,19.69 m -131.994,-95.56 142.974,26.88 m -127.485,-101.2 141.865,32.2 m -122.647,-106.56 140.097,39.18 m -117.456,-112.54 138.016,46.04 m -111.926,-118.23 135.596,52.76 m -106.19,-123.63 132.87,59.27 m -100.15,-128.67 129.84,65.65 m -93.94,-133.42 126.52,71.81 m -87.95,-137.1 123.85,76.35 m -81.82,-140.48 120.04,82.19 m -75.1,-144.3 115.99,87.84 m -68.21,-147.81 111.67,93.25 m -61.17,-150.92 107.1,98.49 m -53.98,-153.78 102.29,103.49 m -46.65,-156.22 97.23,108.25 m -39.2,-158.37 91.91,112.77 m -32.31,-159.62 87.81,115.97 m -25.37,-160.52 82.14,120.11 m -17.68,-161.69 76.22,123.92 m -9.87,-162.46 70.12,127.49 m -2.02,-162.9 63.8,130.8 m 5.91,-162.94 57.28,133.74 m 13.04,-162.29 52.29,135.79 m 20.16,-161.279 45.49,138.189 m 28.1,-160.29 38.51,140.33 m 36.04,-158.932 31.42,142.042 m 43.02,-156.991 26.06,143.141 m 49.94,-154.731 18.79,144.291 m 57.67,-152.369 11.46,145.059 m 64.35,-149.551 5.94,145.351 m 70.95,-146.39 -1.44,145.51 m 78.24,-142.991 -8.76,145.251 m 84.48,-139.231 -14.24,144.791 m 90.48,-135.119 -21.5,143.899 m 97.17,-130.712 -28.65,142.662 m 103.59,-125.9 -35.69,141.06 m 108.9,-121.04 -40.89,139.65 m 113.92,-115.959 -47.69,137.429 m 119.51,-110.351 -54.39,134.971 m 124.82,-104.58 -60.88,132.17 m 129.81,-98.46 -67.18,129.05 m 134.46,-92.23 -73.33,125.67 m 138.81,-85.75 -79.28,122 m 142.1,-79.56 -83.61,119.08 m 145.07,-73.28 -89.17,114.96 m 148.46,-66.36 -94.55,110.57 m 151.53,-59.29 -99.74,105.94 m 154.29,-52.06 -104.66,101.08 m 156.65,-44.7 -109.39,95.95 m 158.71,-37.23 -113.86,90.57 m 160.39,-29.62 -118.07,85 m 161.25,-22.65 -121.07,80.66 m 161.74,-15.64 -124.82,74.72 m 162.42,-7.82 -128.32,68.54 m 162.77,0.06 -131.53,62.19 m 162.74,7.96 -134.45,55.64 m 162.29,15.92 -137,48.91 m 161.21,23.04 -138.75,43.78 m 159.79,30.13 -140.78,36.78 m 158.33,38.04 -142.44,29.64 m 156.49,45.93 -143.73,22.43 m 154.11,52.81 -144.48,16.96 m 151.5,59.61 -145.17,9.61"
         style="fill:none;stroke:#b2c0cb;stroke-width:10;stroke-linecap:butt;stroke-linejoin:miter;stroke-miterlimit:10;stroke-dasharray:none;stroke-opacity:1"
         id="path20" />
      <path
         d="m 3980.72,2424.77 -130.75,7.35 m 132.88,61.76 -130.94,0.82 m 129.88,68.31 -130.82,-5.72 m 126.59,73.92 -130.52,-10.6 m 123.01,79.31 -129.81,-17.06 m 119.11,85.34 -128.83,-23.46 m 114.92,91.13 -127.52,-29.72 m 110.47,96.66 -125.92,-35.92 m 105.98,101.19 -124.52,-40.49 m 101.29,105.52 -122.42,-46.46 m 96.17,110.29 -120.05,-52.28 m 90.85,114.8 -117.41,-57.95 m 85.33,119.03 -114.53,-63.49 m 79.66,122.99 -111.4,-68.83 m 73.79,126.66 -108.03,-74.03 m 67.78,130.03 -104.4,-79.05 m 61.61,133.14 -100.56,-83.87 m 55.31,135.9 -96.5,-88.52 m 48.88,138.4 -92.23,-92.96 m 42.34,140.6 -87.72,-97.24 m 36.27,141.99 -84.21,-100.26 m 30.13,143.07 -79.35,-104.15 m 23.3,144.42 -74.29,-107.83 m 16.43,145.43 -69.06,-111.26 m 9.47,146.11 -63.61,-114.44 m 2.47,146.48 -58.01,-117.41 m -4.6,146.55 -52.22,-120.08 m -11.7,146.26 -46.3,-122.51 m -18.82,145.66 -40.18,-124.63 m -25.19,144.44 -35.53,-126.03 m -31.46,142.98 -29.24,-127.63 m -38.51,141.45 -22.87,-128.92 m -44.64,139.5 -18,-129.71 m -50.73,137.2 -11.49,-130.44 m -57.55,134.79 -4.91,-130.85 m -63.45,132.04 0.09,-130.95 m -69.23,128.9 6.7,-130.76 m -75.67,125.52 13.26,-130.27 m -81.88,121.82 19.73,-129.46 m -87.09,117.91 24.59,-128.62 m -92.09,113.75 30.94,-127.23 m -97.64,109.23 37.14,-125.57 m -102.94,104.45 43.29,-123.59 m -107.97,99.42 49.24,-121.31 m -112,94.47 53.62,-119.44 m -115.76,89.37 59.34,-116.75 m -119.99,83.81 64.87,-113.75 m -123.93,78.03 70.26,-110.49 m -127.59,72.08 75.48,-107.03 m -130.94,65.98 80.48,-103.29 m -133.99,59.74 85.32,-99.35 m -136.75,53.36 89.95,-95.18 m -138.65,47.41 93.31,-91.88 m -140.29,41.3 97.6,-87.29 m -142.16,34.6 101.66,-82.53 m -143.74,27.82 105.51,-77.54 m -144.99,20.92 109.14,-72.35 m -145.95,13.91 112.52,-66.96 m -146.56,6.87 115.66,-61.41 m -146.52,0.48 117.83,-57.08 m -146.09,-5.97 120.5,-51.23 m -145.79,-13.1 122.88,-45.17 m -145.13,-20.3 125,-38.99 m -144.15,-27.47 126.79,-32.66 m -142.63,-33.82 127.94,-27.86 m -140.81,-40.11 129.19,-21.37 m -138.92,-47.14 130.1,-14.82 m -136.58,-53.24 130.57,-9.86 m -133.95,-59.25 130.88,-3.24 m -131.1,-65.94 130.88,3.38 m -127.92,-71.67 130.69,8.33 m -124.44,-77.21 130.09,14.88 m -120.64,-83.38 129.17,21.38 m -116.7,-88.57 128.29,26.19 m -112.46,-93.47 126.83,32.51 m -107.91,-98.96 125.11,38.71 m -103.04,-104.18 123.05,44.81 m -97.97,-109.16 120.71,50.73 m -92.65,-113.81 118.12,56.52 m -87.13,-118.21 115.24,62.13 m -81.83,-121.63 112.94,66.27 m -76.39,-124.8 109.64,71.6 m -70.4,-128.37 106.07,76.76 m -64.27,-131.66 102.31,81.71 m -58,-134.59 98.29,86.52 m -51.57,-137.31 94.06,91.11 m -45.04,-139.65 89.61,95.49 m -38.38,-141.72 84.91,99.65 m -32.2,-142.99 81.29,102.63 m -26,-143.93 76.28,106.47 m -19.08,-145.15 71.02,110 m -12.08,-145.98 65.6,113.33 m -5.01,-146.53 59.96,116.44 m 2.12,-146.73 54.17,119.21 m 8.55,-146.28 49.7,121.15 m 14.99,-145.51 43.64,123.45 m 22.14,-144.78 37.39,125.51 m 29.32,-143.7 31.06,127.18 m 35.62,-142.1 26.26,128.28 m 41.9,-140.2 19.75,129.46 m 48.89,-138.23 13.16,130.3 m 54.97,-135.82 8.2,130.66 m 60.95,-133.12 1.56,130.96 m 67.59,-130.2 -5.03,130.86 m 73.27,-126.92 -9.96,130.55 m 78.75,-123.35 -16.5,129.89 m 84.85,-119.5 -22.98,128.91 m 90.76,-115.31 -29.35,127.62 m 95.61,-111.04 -34.07,126.45 m 100.24,-106.56 -40.23,124.59 m 105.38,-101.64 -46.28,122.51 m 110.26,-96.56 -52.19,120.13 m 114.87,-91.14 -57.92,117.43 m 119.17,-85.63 -63.5,114.53 m 123.19,-79.9 -68.92,111.33 m 126.3,-74.36 -72.91,108.77 m 129.11,-68.78 -77.97,105.19 m 132.27,-62.62 -82.91,101.36 m 135.19,-56.33 -87.67,97.27 m 137.81,-49.86 -92.19,93 m 140.06,-43.3 -96.53,88.49 m 142.06,-36.62 -100.67,83.73 m 143.74,-29.81 -104.56,78.81 m 144.65,-23.55 -107.37,74.95 m 145.24,-17.24 -110.85,69.68 m 145.99,-10.22 -114.12,64.18 m 146.45,-3.14 -117.11,58.55 m 146.56,3.96 -119.86,52.7 m 146.34,11.15 -122.33,46.69 m 145.52,17.57 -123.99,42.12 m 144.37,23.97 -125.95,35.85 m 143.22,31.12 -127.58,29.47 m 141.71,38.26 -128.9,23 m 139.71,44.49 -129.67,18.1 m 137.48,50.66 -130.43,11.5"
         style="fill:none;stroke:#b2c0cb;stroke-width:10;stroke-linecap:butt;stroke-linejoin:miter;stroke-miterlimit:10;stroke-dasharray:none;stroke-opacity:1"
         id="path22" />
      <path
         d="m 3834.28,2461.67 -117.78,4.05 m 118.34,58.18 -117.84,-1.84 m 115.53,64.01 -117.6,-7.71 m 112.46,69 -117.24,-12.1 m 109.13,73.78 -116.47,-17.9 m 105.49,79.13 -115.44,-23.64 m 101.61,84.24 -114.15,-29.24 m 97.5,89.14 -112.6,-34.79 m 93.37,93.13 -111.25,-38.87 m 89.07,96.92 -109.25,-44.2 m 84.37,101.12 -106.99,-49.4 m 79.49,105.09 -104.5,-54.45 m 74.43,108.77 -101.8,-59.37 m 69.27,112.23 -98.89,-64.13 m 63.9,115.42 -95.73,-68.73 m 58.42,118.33 -92.38,-73.17 m 52.82,121 -88.84,-77.44 m 47.1,123.37 -85.08,-81.55 m 41.25,125.49 -81.15,-85.46 m 35.33,127.35 -77.01,-89.21 m 29.85,128.46 -73.81,-91.86 m 24.3,129.32 -69.37,-95.27 m 18.14,130.41 -64.73,-98.48 m 11.92,131.17 -59.94,-101.46 m 5.65,131.65 -54.99,-104.22 m -0.65,131.85 -49.89,-106.78 m -7.03,131.77 -44.62,-109.07 m -13.41,131.37 -39.26,-111.14 m -19.78,130.69 -33.71,-112.93 m -25.5,129.47 -29.49,-114.1 m -31.13,128.04 -23.8,-115.42 m -37.42,126.53 -18.04,-116.46 m -42.9,124.64 -13.68,-117.06 m -48.32,122.45 -7.78,-117.59 m -54.43,120.15 -1.85,-117.82 m -59.68,117.55 2.64,-117.83 m -64.81,114.63 8.59,-117.53 m -70.55,111.46 14.48,-116.95 m -76.06,108 20.3,-116.1 m -80.67,104.38 24.65,-115.24 m -85.1,100.54 30.33,-113.87 m -90,96.37 35.89,-112.26 m -94.67,91.96 41.36,-110.35 m -99.09,87.33 46.68,-108.18 m -102.63,82.8 50.59,-106.42 m -105.91,78.14 55.68,-103.88 m -109.61,73.06 60.61,-101.08 m -113.05,67.77 65.39,-98.03 m -116.22,62.35 70.02,-94.82 m -119.11,56.8 74.43,-91.36 m -121.72,51.11 78.71,-87.71 m -124.09,45.32 82.81,-83.86 m -125.7,39.93 85.77,-80.84 m -127.03,34.4 89.52,-76.62 m -128.59,28.35 93.1,-72.27 m -129.88,22.21 96.45,-67.7 m -130.88,15.98 99.63,-62.96 m -131.6,9.65 102.57,-58.04 m -132.02,3.31 105.28,-52.98 m -131.85,-2.46 107.15,-49.04 m -131.34,-8.24 109.43,-43.73 m -130.92,-14.65 111.45,-38.23 m -130.19,-21.11 113.25,-32.63 m -129.17,-27.55 114.72,-26.9 m -127.67,-33.23 115.66,-22.55 m -125.9,-38.86 116.66,-16.69 m -124.07,-45.15 117.35,-10.77 m -121.84,-50.59 117.67,-6.31 m -119.36,-55.94 117.83,-0.35 m -116.67,-61.9 117.71,5.61 m -113.7,-67 117.42,10.06 m -110.45,-71.92 116.76,15.95 m -106.92,-77.4 115.81,21.78 m -103.27,-81.98 114.92,26.08 m -99.35,-86.31 113.48,31.74 m -95.14,-91.16 111.8,37.29 m -90.67,-95.77 109.84,42.74 m -86.01,-100.14 107.62,48.01 m -81.12,-104.22 105.17,53.17 m -76.09,-108.07 102.48,58.17 m -71.24,-111.05 100.32,61.84 m -66.29,-113.79 97.25,66.58 m -60.83,-116.89 93.95,71.15 m -55.26,-119.73 90.46,75.54 m -49.55,-122.25 86.75,79.78 m -43.72,-124.56 82.85,83.83 m -37.78,-126.54 78.75,87.68 m -31.75,-128.27 74.45,91.33 m -26.17,-129.29 71.12,93.94 m -20.55,-130.02 66.53,97.3 m -14.32,-130.98 61.75,100.37 m -8,-131.59 56.79,103.26 m -1.63,-131.94 51.68,105.95 m 4.78,-131.99 46.4,108.34 m 10.57,-131.46 42.35,109.99 m 16.33,-130.64 36.85,111.94 m 22.76,-129.84 31.19,113.67 m 29.19,-128.73 25.46,115.05 m 34.84,-127.16 21.11,115.94 m 40.45,-125.33 15.22,116.87 m 46.71,-123.41 9.28,117.5 m 52.13,-121.13 4.81,117.72 m 57.46,-118.58 -1.17,117.87 m 63.39,-115.83 -7.11,117.64 m 68.43,-112.75 -11.53,117.27 m 73.29,-109.45 -17.41,116.56 m 78.7,-105.86 -23.2,115.54 m 83.91,-101.98 -28.91,114.26 m 88.21,-98.04 -33.13,113.11 m 92.28,-93.91 -38.63,111.32 m 96.81,-89.4 -44.06,109.33 m 101.11,-84.71 -49.31,107.06 m 105.14,-79.75 -54.42,104.52 m 108.91,-74.7 -59.39,101.8 m 112.42,-69.46 -64.22,98.81 m 115.12,-64.44 -67.73,96.45 m 117.51,-59.35 -72.22,93.11 m 120.25,-53.75 -76.59,89.57 m 122.74,-48.03 -80.8,85.81 m 124.98,-42.16 -84.77,81.87 m 126.87,-36.21 -88.59,77.72 m 128.55,-30.15 -92.23,73.36 m 129.92,-24 -95.63,68.86 m 130.61,-18.36 -98.07,65.34 m 131.01,-12.67 -101.1,60.53 m 131.56,-6.33 -103.95,55.51 m 131.84,0.05 -106.52,50.37 m 131.79,6.45 -108.88,45.07 m 131.46,12.9 -110.98,39.61 m 130.58,18.66 -112.39,35.47 m 129.44,24.4 -114.03,29.79 m 128.25,30.81 -115.38,24.01 m 126.76,37.21 -116.43,18.17 m 124.83,42.77 -117.03,13.74 m 122.71,48.28 -117.58,7.79"
         style="fill:none;stroke:#b2c0cb;stroke-width:10;stroke-linecap:butt;stroke-linejoin:miter;stroke-miterlimit:10;stroke-dasharray:none;stroke-opacity:1"
         id="path24" />
      <path
         d="m 3699.87,2434.56 -105.87,6.43 m 107.84,49.56 -106.06,1.11 m 105.44,54.88 -105.98,-4.17 m 102.8,59.42 -105.76,-8.12 m 99.91,63.8 -105.2,-13.35 m 96.77,68.7 -104.41,-18.54 m 93.4,73.39 -103.39,-23.61 m 89.81,77.9 -102.12,-28.66 m 86.2,81.6 -101,-32.36 m 82.41,85.11 -99.32,-37.2 m 78.29,89 -97.43,-41.94 m 74,92.68 -95.3,-46.52 m 69.53,96.1 -92.99,-51.02 m 64.96,99.34 -90.49,-55.36 m 60.22,102.34 -87.76,-59.58 m 55.36,105.09 -84.85,-63.66 m 50.38,107.62 -81.76,-67.58 m 45.3,109.88 -78.47,-71.36 m 40.07,111.93 -75.02,-74.97 m 34.77,113.74 -71.38,-78.46 m 29.88,114.88 -68.56,-80.92 m 24.9,115.79 -64.65,-84.07 m 19.38,116.89 -60.55,-87.08 m 13.83,117.74 -56.33,-89.87 m 8.18,118.3 -51.92,-92.46 m 2.52,118.64 -47.41,-94.91 m -3.22,118.73 -42.71,-97.09 m -8.97,118.51 -37.94,-99.05 m -14.71,118.03 -32.99,-100.8 m -19.89,117.08 -29.22,-101.95 m -24.98,115.92 -24.14,-103.27 m -30.69,114.7 -18.97,-104.34 m -35.68,113.16 -15.05,-105 m -40.58,111.31 -9.79,-105.61 m -46.14,109.37 -4.43,-105.97 m -50.92,107.18 -0.4,-106.07 m -55.62,104.66 4.96,-105.96 m -60.84,101.95 10.27,-105.56 m -65.89,98.96 15.54,-104.94 m -70.12,95.81 19.45,-104.25 m -74.19,92.46 24.6,-103.18 m -78.69,88.84 29.65,-101.85 m -83.01,84.97 34.61,-100.27 m -87.1,80.92 39.46,-98.44 m -90.39,76.93 43.01,-96.95 m -93.44,72.81 47.65,-94.78 m -96.9,68.31 52.15,-92.37 m -100.11,63.65 56.52,-89.75 m -103.09,58.83 60.75,-86.96 m -105.82,53.92 64.82,-83.95 m -108.31,48.84 68.74,-80.76 m -110.57,43.7 72.52,-77.4 m -112.14,38.89 75.25,-74.75 m -113.48,33.94 78.73,-71.04 m -115.01,28.53 82.05,-67.21 m -116.32,23.04 85.19,-63.19 m -117.39,17.45 88.15,-58.98 m -118.17,11.79 90.92,-54.65 m -118.69,6.1 93.45,-50.15 m -118.66,0.89 95.24,-46.65 m -118.36,-4.31 97.41,-41.93 m -118.13,-10.09 99.38,-37.03 m -117.62,-15.91 101.1,-32.03 m -116.86,-21.74 102.6,-26.9 m -115.65,-26.9 103.53,-23.01 m -114.21,-32 104.57,-17.76 m -112.69,-37.7 105.34,-12.46 m -110.81,-42.63 105.72,-8.46 m -108.71,-47.51 106,-3.1 m -106.42,-52.93 106.03,2.27 m -103.87,-57.61 105.87,6.29 m -101.06,-62.11 105.42,11.6 m -98.01,-67.1 104.69,16.86 m -94.83,-71.33 104,20.76 m -91.42,-75.31 102.85,25.88 m -87.74,-79.78 101.46,30.91 m -83.82,-84.02 99.82,35.86 m -79.74,-88.06 97.95,40.66 m -75.43,-91.86 95.86,45.37 m -70.99,-95.45 93.57,49.92 m -66.72,-98.23 91.72,53.27 m -62.32,-100.81 89.06,57.61 m -57.48,-103.73 86.2,61.81 m -52.53,-106.42 83.16,65.83 m -47.46,-108.83 79.93,69.73 m -42.27,-111.04 76.52,73.48 m -36.98,-112.96 72.92,77.03 m -31.59,-114.65 69.13,80.41 m -26.6,-115.7 66.22,82.83 m -21.56,-116.49 62.15,85.98 m -15.97,-117.5 57.91,88.84 m -10.29,-118.19 53.53,91.55 m -4.57,-118.66 48.98,94.09 m 1.2,-118.85 44.29,96.38 m 6.42,-118.52 40.68,97.96 m 11.63,-117.92 35.78,99.83 m 17.41,-117.34 30.75,101.52 m 23.24,-116.49 25.61,102.91 m 28.35,-115.23 21.72,103.8 m 33.43,-113.71 16.45,104.79 m 39.12,-112.13 11.11,105.49 m 44.06,-110.2 7.1,105.8 m 48.91,-108.03 1.73,106.07 m 54.28,-105.7 -3.62,106.01 m 58.9,-103.06 -7.61,105.77 m 63.36,-100.18 -12.92,105.27 m 68.32,-97.1 -18.15,104.49 m 73.09,-93.72 -23.32,103.47 m 77.06,-90.27 -27.14,102.55 m 80.81,-86.67 -32.14,101.05 m 84.99,-82.7 -37.06,99.4 m 88.96,-78.59 -41.83,97.48 m 92.71,-74.22 -46.49,95.3 m 96.23,-69.78 -51.05,93 m 99.52,-65.14 -55.44,90.42 m 102.04,-60.69 -58.68,88.37 m 104.33,-56.18 -62.77,85.48 m 106.91,-51.18 -66.8,82.38 m 109.3,-46.1 -70.65,79.1 m 111.43,-40.88 -74.34,75.67 m 113.3,-35.57 -77.87,72 m 114.94,-30.15 -81.25,68.18 m 116.32,-24.65 -84.42,64.2 m 117.07,-19.59 -86.69,61.09 m 117.57,-14.48 -89.53,56.83 m 118.21,-8.79 -92.19,52.39 m 118.6,-3.06 -94.66,47.82 m 118.74,2.7 -96.9,43.11 m 118.56,8.51 -98.9,38.26 m 117.92,13.72 -100.29,34.54 m 117.03,18.91 -101.88,29.5 m 116.1,24.69 -103.23,24.33 m 114.91,30.47 -104.31,19.1 m 113.32,35.55 -104.97,15.1 m 111.54,40.56 -105.62,9.78"
         style="fill:none;stroke:#b2c0cb;stroke-width:10;stroke-linecap:butt;stroke-linejoin:miter;stroke-miterlimit:10;stroke-dasharray:none;stroke-opacity:1"
         id="path26" />
      <path
         d="m 3581.55,2469.67 -95.4,3.28 m 95.85,47.13 -95.45,-1.49 m 93.58,51.85 -95.25,-6.25 m 91.09,55.89 -94.96,-9.8 m 88.39,59.76 -94.35,-14.5 m 85.46,64.09 -93.51,-19.15 m 82.31,68.25 -92.47,-23.69 m 78.97,72.2 -91.21,-28.18 m 75.64,75.44 -90.12,-31.49 m 72.15,78.51 -88.49,-35.8 m 68.34,81.91 -86.67,-40.02 m 64.4,85.12 -84.65,-44.11 m 60.28,88.11 -82.44,-48.09 m 56.09,90.91 -80.09,-51.94 m 51.75,93.48 -77.53,-55.67 m 47.33,95.85 -74.84,-59.27 m 42.79,98.01 -71.97,-62.73 m 38.16,99.93 -68.93,-66.05 m 33.41,101.65 -65.72,-69.22 m 28.61,103.14 -62.37,-72.26 m 24.18,104.06 -59.79,-74.41 m 19.67,104.75 -56.17,-77.17 m 14.69,105.63 -52.43,-79.77 m 9.66,106.25 -48.56,-82.18 m 4.58,106.64 -44.54,-84.43 m -0.54,106.8 -40.4,-86.49 m -5.69,106.74 -36.15,-88.35 m -10.86,106.41 -31.79,-90.02 m -16.04,105.86 -27.29,-91.47 m -20.66,104.87 -23.89,-92.42 m -25.21,103.7 -19.28,-93.48 m -30.31,102.48 -14.62,-94.33 m -34.75,100.96 -11.08,-94.82 m -39.14,99.19 -6.3,-95.25 m -44.09,97.32 -1.49,-95.44 m -48.34,95.22 2.14,-95.44 m -52.5,92.85 6.95,-95.2 m -57.14,90.28 11.73,-94.73 m -61.61,87.48 16.45,-94.04 m -65.35,84.55 19.97,-93.34 m -68.93,81.43 24.56,-92.23 m -72.9,78.06 29.08,-90.93 m -76.69,74.49 33.51,-89.39 m -80.27,70.74 37.81,-87.63 m -83.12,67.07 40.97,-86.2 m -85.78,63.3 45.1,-84.14 m -88.79,59.17 49.09,-81.87 m -91.56,54.89 52.96,-79.41 m -94.14,50.51 56.71,-76.8 m -96.47,46 60.29,-74 m -98.59,41.4 63.75,-71.05 m -100.52,36.72 67.08,-67.94 m -101.81,32.35 69.47,-65.48 m -102.9,27.87 72.51,-62.07 m -104.15,22.96 75.41,-58.53 m -105.21,17.99 78.13,-54.84 m -106.01,12.94 80.7,-50.99 m -106.6,7.82 83.08,-47.02 m -106.93,2.68 85.27,-42.92 m -106.79,-1.98 86.79,-39.73 m -106.39,-6.67 88.64,-35.42 m -106.04,-11.87 90.27,-30.97 m -105.45,-17.1 91.72,-26.42 m -104.62,-22.32 92.93,-21.79 m -103.42,-26.92 93.69,-18.26 m -101.99,-31.48 94.5,-13.52 m -100.5,-36.56 95.06,-8.73 m -98.7,-40.98 95.32,-5.11 m -96.69,-45.31 95.45,-0.28 m -94.51,-50.15 95.35,4.55 m -92.1,-54.27 95.12,8.15 m -89.47,-58.25 94.58,12.91 m -86.61,-62.69 93.81,17.64 m -83.65,-66.41 93.08,21.13 m -80.47,-69.91 91.92,25.71 m -77.06,-73.84 90.55,30.2 m -73.44,-77.57 88.97,34.62 m -69.67,-81.11 87.18,38.88 m -65.71,-84.42 85.18,43.08 m -61.63,-87.54 83.01,47.11 m -57.7,-89.95 81.26,50.1 m -53.7,-92.17 78.77,53.92 m -49.27,-94.68 76.1,57.64 m -44.76,-96.98 73.27,61.18 m -40.13,-99.02 70.27,64.62 m -35.42,-100.89 67.11,67.9 m -30.6,-102.5 63.79,71.02 m -25.72,-103.9 60.3,73.98 m -21.19,-104.72 57.61,76.09 m -16.65,-105.32 53.89,78.81 m -11.6,-106.09 50.01,81.3 m -6.47,-106.58 46,83.64 m -1.32,-106.88 41.85,85.82 m 3.88,-106.91 37.59,87.75 m 8.55,-106.48 34.31,89.09 m 13.23,-105.81 29.84,90.67 m 18.44,-105.17 25.26,92.07 m 23.65,-104.27 20.62,93.19 m 28.22,-103 17.1,93.91 m 32.76,-101.52 12.33,94.67 m 37.84,-99.97 7.52,95.18 m 42.22,-98.12 3.9,95.36 m 46.54,-96.05 -0.95,95.47 m 51.34,-93.82 -5.75,95.3 m 55.42,-91.34 -9.34,94.99 m 59.37,-88.65 -14.1,94.41 m 63.75,-85.75 -18.8,93.59 m 67.97,-82.6 -23.42,92.55 m 71.44,-79.41 -26.82,91.62 m 74.74,-76.07 -31.29,90.17 m 78.41,-72.41 -35.68,88.55 m 81.89,-68.61 -39.94,86.71 m 85.17,-64.59 -44.08,84.66 m 88.23,-60.51 -48.13,82.46 m 91.08,-56.27 -52.01,80.04 m 93.23,-52.19 -54.86,78.12 m 95.19,-48.07 -58.5,75.42 m 97.4,-43.54 -62.04,72.55 m 99.42,-38.9 -65.44,69.5 m 101.23,-34.15 -68.67,66.32 m 102.76,-29.33 -71.75,62.95 m 104.13,-24.42 -74.71,59.42 m 105.22,-19.44 -77.45,55.77 m 105.79,-14.86 -79.43,52.92 m 106.11,-10.26 -81.88,49.03 m 106.56,-5.13 -84.19,44.96 m 106.79,0.04 -86.29,40.81 m 106.76,5.21 -88.21,36.51 m 106.49,10.45 -89.89,32.09 m 105.77,15.11 -91.05,28.73 m 104.86,19.77 -92.38,24.13 m 103.89,24.95 -93.46,19.45 m 102.68,30.14 -94.3,14.71 m 101.11,34.65 -94.79,11.13 m 99.38,39.11 -95.23,6.31"
         style="fill:none;stroke:#b2c0cb;stroke-width:10;stroke-linecap:butt;stroke-linejoin:miter;stroke-miterlimit:10;stroke-dasharray:none;stroke-opacity:1"
         id="path28" />
      <path
         d="m 3472.67,2447.72 -85.76,5.2 m 87.35,40.14 -85.9,0.91 m 85.41,44.44 -85.85,-3.37 m 83.28,48.13 -85.68,-6.58 m 80.94,51.69 -85.22,-10.83 m 78.39,55.66 -84.58,-15.03 m 75.67,59.46 -83.75,-19.13 m 72.74,63.09 -82.71,-23.2 m 69.81,66.09 -81.81,-26.21 m 66.76,68.94 -80.46,-30.13 m 63.41,72.08 -78.91,-33.96 m 59.95,75.07 -77.21,-37.69 m 56.33,77.85 -75.33,-41.33 m 52.62,80.47 -73.29,-44.84 m 48.77,82.89 -71.07,-48.26 m 44.84,85.12 -68.73,-51.57 m 40.81,87.17 -66.23,-54.73 m 36.68,89 -63.56,-57.8 m 32.47,90.66 -60.78,-60.73 m 28.18,92.13 -57.82,-63.54 m 24.2,93.05 -55.54,-65.54 m 20.17,93.78 -52.37,-68.1 m 15.71,94.69 -49.05,-70.54 m 11.2,95.37 -45.62,-72.8 m 6.62,95.83 -42.05,-74.9 m 2.03,96.1 -38.4,-76.86 m -2.6,96.16 -34.6,-78.63 m -7.25,95.99 -30.74,-80.25 m -11.93,95.62 -26.72,-81.65 m -16.11,94.84 -23.66,-82.59 m -20.24,93.9 -19.56,-83.66 m -24.85,92.92 -15.36,-84.52 m -28.9,91.65 -12.19,-85.05 m -32.88,90.16 -7.92,-85.54 m -37.37,88.59 -3.59,-85.83 m -41.25,86.81 -0.33,-85.92 m -45.05,84.78 4.02,-85.82 m -49.28,82.57 8.32,-85.5 m -53.37,80.16 12.58,-85 m -56.8,77.61 15.76,-84.45 m -60.09,74.89 19.92,-83.56 m -63.74,71.95 24.01,-82.5 m -67.24,68.83 28.04,-81.22 m -70.55,65.54 31.96,-79.73 m -73.21,62.3 34.83,-78.52 m -75.68,58.97 38.59,-76.77 m -78.48,55.34 42.23,-74.82 m -81.08,51.54 45.78,-72.69 m -83.51,47.66 49.22,-70.44 m -85.72,43.67 52.5,-68 m -87.73,39.57 55.69,-65.42 m -89.57,35.4 58.75,-62.7 m -90.84,31.5 60.96,-60.55 m -91.91,27.49 63.77,-57.54 m -93.17,23.11 66.47,-54.44 m -94.23,18.66 69,-51.17 m -95.08,14.13 71.4,-47.78 m -95.71,9.55 73.63,-44.26 m -96.14,4.93 75.71,-40.62 m -96.13,0.73 77.15,-37.78 m -95.87,-3.5 78.91,-33.96 m -95.68,-8.18 80.49,-29.98 m -95.28,-12.9 81.9,-25.94 m -94.65,-17.62 83.09,-21.79 m -93.68,-21.78 83.86,-18.64 m -92.5,-25.92 84.7,-14.38 m -91.27,-30.54 85.31,-10.09 m -89.75,-34.54 85.62,-6.84 m -88.05,-38.49 85.86,-2.5 m -86.2,-42.89 85.89,1.85 m -84.14,-46.67 85.77,5.1 m -81.87,-50.3 85.39,9.39 m -79.39,-54.37 84.81,13.66 m -76.82,-57.77 84.24,16.82 m -74.05,-61.01 83.31,20.97 m -71.07,-64.62 82.18,25.04 m -67.9,-68.06 80.86,29.05 m -64.59,-71.33 79.34,32.93 m -61.1,-74.41 77.65,36.75 m -57.51,-77.31 75.79,40.44 m -54.02,-79.57 74.28,43.15 m -50.48,-81.66 72.14,46.66 m -46.56,-84.02 69.82,50.06 m -42.55,-86.2 67.36,53.32 m -38.44,-88.14 64.74,56.49 m -34.24,-89.94 61.98,59.51 m -29.95,-91.5 59.07,62.39 m -25.59,-92.87 55.99,65.14 m -21.53,-93.72 53.62,67.1 m -17.46,-94.36 50.34,69.64 m -12.93,-95.18 46.91,71.97 m -8.34,-95.74 43.36,74.16 m -3.71,-96.12 39.68,76.22 m 0.97,-96.27 35.89,78.06 m 5.18,-96 32.97,79.35 m 9.41,-95.52 28.98,80.87 m 14.11,-95.05 24.9,82.24 m 18.82,-94.37 20.74,83.36 m 22.97,-93.33 17.6,84.08 m 27.08,-92.1 13.33,84.88 m 31.68,-90.83 9.01,85.45 m 35.67,-89.27 5.76,85.7 m 39.62,-87.51 1.39,85.92 m 43.97,-85.62 -2.92,85.87 m 47.7,-83.48 -6.16,85.68 m 51.32,-81.15 -10.46,85.27 m 55.33,-78.65 -14.69,84.64 m 59.19,-75.92 -18.88,83.82 m 62.41,-73.13 -21.99,83.06 m 65.47,-70.2 -26.04,81.87 m 68.84,-66.99 -30.02,80.51 m 72.07,-63.66 -33.9,78.95 m 75.11,-60.12 -37.66,77.21 m 77.94,-56.52 -41.33,75.32 m 80.59,-52.77 -44.91,73.24 m 82.67,-49.15 -47.52,71.57 m 84.49,-45.49 -50.85,69.23 m 86.6,-41.46 -54.1,66.74 m 88.53,-37.35 -57.24,64.07 m 90.27,-33.1 -60.21,61.27 m 91.76,-28.8 -63.07,58.33 m 93.1,-24.43 -65.82,55.22 m 94.22,-19.97 -68.37,52.01 m 94.84,-15.87 -70.23,49.48 m 95.24,-11.73 -72.52,46.04 m 95.74,-7.12 -74.68,42.43 m 96.08,-2.48 -76.67,38.75 m 96.17,2.18 -78.5,34.92 m 96.06,6.89 -80.13,30.99 m 95.52,11.11 -81.22,27.99 m 94.78,15.31 -82.53,23.89 m 94.06,20 -83.63,19.7 m 93.08,24.7 -84.49,15.46 m 91.78,28.79 -85.03,12.25 m 90.36,32.84 -85.55,7.92"
         style="fill:none;stroke:#b2c0cb;stroke-width:10;stroke-linecap:butt;stroke-linejoin:miter;stroke-miterlimit:10;stroke-dasharray:none;stroke-opacity:1"
         id="path30" />
    </g>
  </g>
</svg>
